<svg width="104" height="24" viewBox="0 0 104 24" fill="none" xmlns="http://www.w3.org/2000/svg">
<path d="M72 16.0667L76.9467 19.6667L75.0533 13.8533L80 10.3333H73.9333L72 4.33333L70.0667 10.3333H64L68.9467 13.8533L67.0533 19.6667L72 16.0667Z" fill="#F8B459"/>
<path d="M92 16.0667L96.9467 19.6667L95.0533 13.8533L100 10.3333H93.9333L92 4.33333L90.0667 10.3333H84L88.9467 13.8533L87.0533 19.6667L92 16.0667Z" fill="#F8B459"/>
<path d="M52 16.0667L56.9467 19.6667L55.0533 13.8533L60 10.3333H53.9333L52 4.33333L50.0667 10.3333H44L48.9467 13.8533L47.0533 19.6667L52 16.0667Z" fill="#F8B459"/>
<path d="M32 16.0667L36.9467 19.6667L35.0533 13.8533L40 10.3333H33.9333L32 4.33333L30.0667 10.3333H24L28.9467 13.8533L27.0533 19.6667L32 16.0667Z" fill="#F8B459"/>
<path d="M12 16.0667L16.9467 19.6667L15.0533 13.8533L20 10.3333H13.9333L12 4.33333L10.0667 10.3333H4L8.94667 13.8533L7.05333 19.6667L12 16.0667Z" fill="#F8B459"/>
</svg>
