<svg xmlns="http://www.w3.org/2000/svg" xmlns:xlink="http://www.w3.org/1999/xlink" width="90.816" height="81.175" viewBox="0 0 90.816 81.175">
  <defs>
    <linearGradient id="linear-gradient" x1="0.475" y1="0.989" x2="0.49" y2="-0.012" gradientUnits="objectBoundingBox">
      <stop offset="0" stop-color="#00001b"/>
      <stop offset="1" stop-color="#141744"/>
    </linearGradient>
    <linearGradient id="linear-gradient-2" x1="1.007" y1="0.751" x2="-0.181" y2="0.168" xlink:href="#linear-gradient"/>
    <linearGradient id="linear-gradient-3" x1="0.364" y1="0.917" x2="0.383" y2="-0.163" xlink:href="#linear-gradient"/>
    <linearGradient id="linear-gradient-4" x1="-0.148" y1="0.362" x2="0.907" y2="0.362" xlink:href="#linear-gradient"/>
    <linearGradient id="linear-gradient-5" x1="-0.198" y1="0.312" x2="0.877" y2="0.312" xlink:href="#linear-gradient"/>
  </defs>
  <g id="Group_4" data-name="Group 4" transform="translate(-181.055 -1311.667)">
    <path id="Path_9" data-name="Path 9" d="M321.495,1551.208" transform="translate(-105.599 -183.262)" fill="#141744"/>
    <path id="Path_10" data-name="Path 10" d="M192.354,1327.777c-.258.039-.546-2.533-1.622-5.069-1.184-2.791-3.63-6.264-9.112-9.469,0,0,13.134-5.3,31.394,5.321,0,0,30.223-10.141,58.606,6.144,0,0,.03,4.779-11.051,10.513,0,0-5.028-1.25-8.612-.777,0,0,4.92,2.8,5.719,3.929a36.96,36.96,0,0,1-8.715,5.486c-8.271,3.7-18.323,4.462-24.977,4.969-3.792.289-7.106.375-10.562,2.537a17.335,17.335,0,0,0-5.515,5.761,19.671,19.671,0,0,0-2.729,8.67,21.725,21.725,0,0,0,4.242,14.1,24.625,24.625,0,0,0,10.79,8.32,27.591,27.591,0,0,1-3.355-7.655,26.966,26.966,0,0,1-.868-5.549,39.99,39.99,0,0,1,13.146-.253,39.318,39.318,0,0,1,7.839,2,37.778,37.778,0,0,0-13.234-8.363,39.122,39.122,0,0,0-13.484-2.433,30.283,30.283,0,0,1,5.936-.271,32.743,32.743,0,0,1,13.718,4.045,42.07,42.07,0,0,1,13.729,11.248,58.249,58.249,0,0,0-5.919-2.265,45.534,45.534,0,0,0-13.252-2.528,40.384,40.384,0,0,0-6.568.351,29.588,29.588,0,0,0,3.357,8.844,30.674,30.674,0,0,0,5.645,7.1,29.941,29.941,0,0,1-16.868-8.091,26.95,26.95,0,0,1-5.452-7.974c-1.311-2.935-4.192-9.384-1.552-16.8a21.507,21.507,0,0,1,10.117-11.37c1.835-.908,3.778-1.332,7.587-2.143a131.077,131.077,0,0,1,14.423-2.072,55.319,55.319,0,0,0,17.826-5.549,29.4,29.4,0,0,0-4.618-2.963,30.1,30.1,0,0,0-5.636-2.226,33.132,33.132,0,0,1,17.215-1.094,20.085,20.085,0,0,0,4.4-2.867,19.41,19.41,0,0,0,2.8-2.971,92.236,92.236,0,0,0-52.2-5.37,45.853,45.853,0,0,0-13.455-5.486,46.772,46.772,0,0,0-14.207-1.073,17.45,17.45,0,0,1,4.3,6.694C192.712,1324.419,192.644,1327.734,192.354,1327.777Z" transform="translate(0 0)" stroke="#fff" stroke-miterlimit="10" stroke-width="0.5" fill="url(#linear-gradient)"/>
    <path id="Path_11" data-name="Path 11" d="M375.583,1351.82a8.551,8.551,0,0,1,4.692-1.4,10.087,10.087,0,0,1,3.331.7c1.679.588,2.129,1.115,3.865,1.822a12.89,12.89,0,0,0,2.938.764,5.193,5.193,0,0,1-1.913,1.137c-1.2.3-1.553.016-3.781.076a13.79,13.79,0,0,0-3.581.46,10.917,10.917,0,0,0-1.627.62,6.061,6.061,0,0,1,2.194-1.852,5.385,5.385,0,0,1-1.654-.5,6.043,6.043,0,0,1-1.216-.823A5.405,5.405,0,0,0,375.583,1351.82Z" transform="translate(-145.994 -29.49)" fill="#adb6bb"/>
    <path id="Path_12" data-name="Path 12" d="M374.884,1350.866a8.553,8.553,0,0,1,4.692-1.4,10.08,10.08,0,0,1,3.331.7c1.679.588,2.129,1.115,3.865,1.821a16.741,16.741,0,0,0,3.177.938,6.775,6.775,0,0,1-2.151.964c-1.2.3-1.553.016-3.781.076a13.8,13.8,0,0,0-3.581.46,10.958,10.958,0,0,0-1.627.62A6.065,6.065,0,0,1,381,1353.2a5.389,5.389,0,0,1-1.654-.5,6.05,6.05,0,0,1-1.216-.824A5.405,5.405,0,0,0,374.884,1350.866Z" transform="translate(-145.459 -28.759)" fill="url(#linear-gradient-2)"/>
    <path id="Path_13" data-name="Path 13" d="M392.144,1356.282a9.088,9.088,0,0,0,6.145,1.7,9.187,9.187,0,0,0-6.145-1.7Z" transform="translate(-158.76 -33.953)" fill="#fff"/>
    <path id="Path_14" data-name="Path 14" d="M289.459,1374.523a5.265,5.265,0,0,1,1.951.232,8.554,8.554,0,0,1,1.828.791,10.971,10.971,0,0,1,2.995,2.6,14.532,14.532,0,0,1,2.046,3.354c.251.6.467,1.217.673,1.829.156.632.315,1.26.417,1.9-.365-.545-.673-1.1-.983-1.655-.333-.541-.661-1.078-.974-1.616a32,32,0,0,0-2.149-3.014,17.384,17.384,0,0,0-2.571-2.589,13.328,13.328,0,0,0-1.52-1.035A8.784,8.784,0,0,0,289.459,1374.523Z" transform="translate(-81.261 -47.932)" fill="url(#linear-gradient-3)"/>
    <path id="Path_15" data-name="Path 15" d="M282.728,1386.943a5.724,5.724,0,0,1,3.167.638,8.959,8.959,0,0,1,2.6,1.987l.535.62.467.668a5.351,5.351,0,0,1,.423.692c.13.237.254.476.376.716.229.486.4,1,.583,1.5a15.43,15.43,0,0,1,.338,1.568c-.336-.428-.615-.868-.9-1.3-.305-.421-.589-.848-.879-1.264-.319-.4-.577-.831-.91-1.206l-.466-.585-.5-.553a15.416,15.416,0,0,0-2.185-1.991A11.162,11.162,0,0,0,282.728,1386.943Z" transform="translate(-76.211 -57.432)" fill="url(#linear-gradient-4)"/>
    <path id="Path_16" data-name="Path 16" d="M276.039,1401.076a4.266,4.266,0,0,1,2.512.371,6.678,6.678,0,0,1,2.09,1.5l.425.482c.129.17.25.345.371.521a7.9,7.9,0,0,1,.622,1.1,10.677,10.677,0,0,1,.433,1.181,9.249,9.249,0,0,1,.212,1.242,11.014,11.014,0,0,1-.766-.971c-.261-.31-.484-.635-.725-.942-.257-.3-.467-.62-.729-.9l-.368-.437-.386-.415a14.062,14.062,0,0,0-1.671-1.514A10.612,10.612,0,0,0,276.039,1401.076Z" transform="translate(-71.196 -68.234)" fill="url(#linear-gradient-5)"/>
  </g>
</svg>
