<svg xmlns="http://www.w3.org/2000/svg" width="90" height="50.968" viewBox="0 0 90 50.968">
  <g id="Group_3" data-name="Group 3" transform="translate(-446.798 -1261.288)">
    <g id="Group_1" data-name="Group 1">
      <path id="Path_1" data-name="Path 1" d="M459.4,1297.794l-5.24,9.068v4.968h-2.127v-4.968l-5.24-9.068h2.467l3.845,6.652,3.828-6.652Z"/>
      <path id="Path_2" data-name="Path 2" d="M469.834,1302.9l-1.548,1.548-5.206,5.206a3.665,3.665,0,0,0,1.854.477,3.852,3.852,0,0,0,3.012-1.463l1.667,1.31a5.814,5.814,0,0,1-4.679,2.28,5.955,5.955,0,1,1,4.22-10.174A7.739,7.739,0,0,1,469.834,1302.9Zm-3.045.051a3.832,3.832,0,0,0-5.206,5.206Z"/>
      <path id="Path_3" data-name="Path 3" d="M473.237,1309.533a6.885,6.885,0,0,0,2.637.6,3.961,3.961,0,0,0,1.829-.34,1,1,0,0,0,.638-.868,1.109,1.109,0,0,0-.315-.791,1.73,1.73,0,0,0-.842-.468l-2.3-.613a4.052,4.052,0,0,1-2.11-1.225,3.094,3.094,0,0,1-.748-2.092,3.056,3.056,0,0,1,1.106-2.374,4.311,4.311,0,0,1,2.875-1.012,7.169,7.169,0,0,1,4.185,1.327l-1.412,1.617a5.4,5.4,0,0,0-2.739-.817,2.371,2.371,0,0,0-1.361.383,1.073,1.073,0,0,0-.51.893.952.952,0,0,0,.348.757,2.671,2.671,0,0,0,.979.485l2.382.646a3.7,3.7,0,0,1,1.947,1.183,3.2,3.2,0,0,1,.724,2.135,2.928,2.928,0,0,1-1.149,2.356,5.457,5.457,0,0,1-3.513.945,8.59,8.59,0,0,1-3.964-1.038Z"/>
      <path id="Path_4" data-name="Path 4" d="M492.155,1297.794v14.036h-2.126v-14.036Z"/>
      <path id="Path_5" data-name="Path 5" d="M497.991,1296.076l-1.361,3.828h-1.889l1.021-3.828Z"/>
      <path id="Path_6" data-name="Path 6" d="M515.923,1309.7h-8.064l-.987,2.127h-2.348l6.55-14.036h1.633l6.584,14.036H516.91Zm-.987-2.126-3.028-6.482-3.029,6.482Z"/>
      <path id="Path_7" data-name="Path 7" d="M530.01,1311.83h-2.127v-6.8a2.551,2.551,0,0,0-4.355-1.8,2.533,2.533,0,0,0-.323.392v8.217h-2.127v-11.058h2.127v.068a4.553,4.553,0,0,1,2.126-.494,4.325,4.325,0,0,1,3.4,1.463,4.271,4.271,0,0,1,3.386-1.463,4.677,4.677,0,0,1,4.678,4.679v6.8h-2.127v-6.8a2.551,2.551,0,0,0-4.355-1.8,2.918,2.918,0,0,0-.306.358Z"/>
    </g>
    <g id="Group_2" data-name="Group 2">
      <path id="Path_8" data-name="Path 8" d="M516.333,1284.04l-1.6,1.6-16.9-16.9-21.157,21.157-5.85-5.85,22.752-22.752Z"/>
      <rect id="Rectangle_1" data-name="Rectangle 1" width="3.911" height="3.911" transform="translate(495.203 1275.026) rotate(-45)" fill="#42210b"/>
      <rect id="Rectangle_2" data-name="Rectangle 2" width="3.911" height="3.911" transform="translate(498.793 1278.616) rotate(-45)" fill="#42210b"/>
      <rect id="Rectangle_3" data-name="Rectangle 3" width="3.911" height="3.911" transform="translate(495.335 1282.073) rotate(-45)" fill="#42210b"/>
      <rect id="Rectangle_4" data-name="Rectangle 4" width="3.911" height="3.911" transform="translate(491.613 1278.616) rotate(-45)" fill="#42210b"/>
    </g>
  </g>
</svg>
